<svg viewBox="0 0 1024 1024" version="1.1" xmlns="http://www.w3.org/2000/svg" xmlns:xlink="http://www.w3.org/1999/xlink" width="32" height="32">
    <path d="M884.16 653.12c-1.92-8.96-3.52-17.92-5.76-26.88-4.48-19.52-9.28-38.72-13.76-58.24-0.32-1.6-1.6-2.88-2.56-5.12-7.36 16-4.48 31.36-0.96 46.72 4.48 19.52 11.52 38.08 20.8 55.68 2.88 5.76 3.84 13.44 3.2 19.84-2.56 29.44-6.4 58.88-9.28 88.32-0.64 5.76 0.64 11.84 2.24 17.6 4.16 15.04 2.56 30.08-0.32 45.12-1.28 6.4-4.48 11.2-11.52 10.56-16.64-1.92-33.28-4.48-51.2-7.04 3.52-8.96 10.56-10.88 16.64-9.92 10.88 1.6 14.72-4.48 16.64-12.48 2.88-11.2 6.08-22.4 6.4-33.6 1.28-32.32 0.96-64.96-9.28-96.32-2.24-6.72-4.16-13.44-8-19.2-8.64-13.44-11.84-28.16-15.04-43.52-1.6-7.68-5.12-15.04-8.64-22.08-0.96-2.24-4.8-4.8-6.72-4.48-1.92 0-4.8 3.84-4.8 6.4-0.64 8.96-1.28 18.24-0.64 27.52 0.64 9.6 1.92 19.2 3.52 28.8 1.6 9.6 3.2 19.2 6.08 28.48 2.56 8 2.24 15.04-1.6 22.4l-53.76 103.68c-2.88 5.44-5.12 11.52-7.04 17.28-5.12 14.72-16 22.08-31.04 23.04-9.6 0.64-19.52 0-29.12-1.28-3.52-0.32-6.4-4.48-9.92-6.72 2.56-3.2 4.8-7.36 8-9.92 3.2-2.24 7.36-3.2 11.2-3.84 15.36-2.24 25.92-11.52 31.68-24.64 8.96-19.84 16.64-40.32 24-61.12 4.16-11.2 7.36-22.72 10.24-34.24 4.16-18.88-1.6-36.8-6.72-54.4-3.2-10.56-2.88-19.84 0.64-30.4 2.24-6.4 2.24-15.36-0.96-21.44-12.48-25.28-24.32-50.88-31.68-78.08 0-0.64-0.96-1.28-1.92-2.24-2.24 1.28-4.8 2.24-7.04 3.52-24 13.76-48.64 24.96-74.88 33.28-5.44 1.6-10.24 4.8-15.68 7.04-2.88 1.28-6.08 2.24-9.28 2.56-38.4 2.24-76.8 3.2-114.24-9.28-5.44-1.92-11.2-2.56-16.64-4.16-8.64-2.24-13.76 1.28-13.76 10.24 0 25.92 2.24 51.84 8.96 77.12 5.12 19.2 8.64 38.72 8.64 58.88 0 14.4 4.8 28.8 7.36 43.2l13.44 73.28c1.6 8.96-5.12 18.88-15.68 20.48-9.28 1.6-18.88 0.96-28.16 1.28-5.12 0-10.56-0.64-15.68-0.96-6.4-0.32-8-2.56-5.44-8.64 2.88-7.04 8.64-10.88 16-12.48 14.4-3.2 17.6-7.36 17.92-21.76 0.32-23.04-2.56-46.08-9.28-67.84-3.52-10.88-9.92-20.8-15.04-31.36-0.96 0-1.6 0.32-2.56 0.64-0.64 3.84-1.6 8-1.28 11.84 1.6 20.48 3.52 40.64 5.12 61.12 0.96 11.52 1.6 23.36 2.24 35.2 0 6.4-2.24 10.56-9.6 11.52-15.68 1.92-31.36 4.8-47.36 6.72-3.2 0.32-8.96-2.24-9.92-5.12-1.92-5.12 2.24-8.64 7.36-10.24 1.28-0.32 2.56-0.64 3.52-0.96 11.52-4.48 21.44-10.56 22.4-24.96 1.28-20.48 3.52-40.64 4.48-61.12 0-6.08-1.28-12.8-3.84-17.92-8.32-16.96-10.24-34.24-5.44-52.16 3.52-12.8 3.84-25.6 0.64-38.4-0.64-2.88 0-6.08-0.64-8.96-1.28-6.4-1.6-13.76-4.8-18.88-8-12.8-13.76-26.56-16.32-41.28a26.208 26.208 0 0 0-9.6-16.32c-7.36-6.08-13.12-14.4-20.8-20.16-5.44-3.84-13.12-5.44-19.84-6.08-2.56 0-7.04 4.8-7.68 8.32-1.28 5.44-3.52 7.68-8.64 8.32-15.68 2.56-30.4-1.28-45.76-4.8-27.52-6.4-48-24.32-67.52-42.24-16-14.4-21.12-35.84-24.96-56.64-2.56-14.08-5.76-27.84-6.72-41.92-0.64-12.48 1.6-25.28 2.24-37.76 0.64-7.68 1.28-15.36 0.64-23.04 0-2.88-3.52-6.08-6.08-8-11.84-7.36-23.04-15.68-38.08-16.32-6.72 0-12.16-9.28-9.92-18.88 1.92-9.6 4.8-19.52 10.24-27.52 3.2-5.12 11.2-8.32 17.6-9.6 14.72-2.56 29.12-5.76 43.2-11.84 14.4-6.08 28.16-7.04 40.96 5.12 6.72 6.4 15.68 8 25.28 6.72 3.84-0.32 8.32 1.92 11.84 3.52 0.96 0.32 1.28 4.16 0.32 5.76-4.48 8.32-4.8 13.76 1.6 20.16 16 16 19.52 35.52 19.52 56.96 0 10.88 0.32 22.08 1.6 32.96 1.28 11.2 5.44 13.76 16.32 10.88 29.12-7.36 50.56-26.24 66.24-50.56 16-24.64 29.76-50.56 44.16-76.16 8-14.08 15.36-28.48 23.36-42.56 2.88-5.12 5.76-9.92 9.6-14.4 10.24-12.8 23.36-17.28 36.16-12.8 13.44 4.8 22.4 18.24 22.08 33.92 0 4.8-0.64 9.6-1.6 14.08-2.24 8.96 0 16.64 3.84 24.64 5.76 12.8 11.2 25.92 16 39.36 3.84 9.92 7.36 20.16 16.64 25.92 4.48 2.88 10.56 4.16 16 5.12 5.76 0.64 10.24-3.2 10.24-8.64 0-24 9.28-45.76 14.4-68.16 2.24-10.24 1.92-20.8 4.16-31.04 3.84-17.28 16-26.88 32.64-30.08 15.36-2.88 27.84 2.56 38.4 15.04 6.08 7.04 13.44 13.76 21.76 17.6 27.84 13.12 47.04 34.24 60.16 61.12 7.36 15.04 14.72 30.08 20.48 45.76 3.84 9.92 5.76 20.48 7.36 31.04 1.92 13.44 8.64 21.12 21.76 24.96 19.84 6.08 36.16 17.28 48 34.88 6.72 9.92 9.28 20.8 8.96 32.64-0.32 21.76 3.52 43.2 8 64.32 3.2 15.04 3.2 30.72 4.48 46.08 2.88 31.68 6.08 63.04 9.28 94.72 0 3.2 0.32 6.4 0.64 9.28-1.28 0-2.56 0.64-3.84 0.64z"></path>
</svg>