<svg viewBox="0 0 1024 1024" version="1.1" xmlns="http://www.w3.org/2000/svg" xmlns:xlink="http://www.w3.org/1999/xlink" width="32" height="32">
    <path d="M138.88 186.56v650.88c0 26.56 21.44 48 48 48h650.56c26.56 0 48-21.44 48-48V186.88c0-26.56-21.44-48-48-48H186.56c-26.56 0-48 21.44-48 48z m233.28 651.84H201.28c-8.64 0-16-7.04-16-16v-124.16h186.56v139.84z m0-186.56H185.28V512h186.56v139.84z m233.28 186.56h-186.56v-139.84h186.56v139.84z m0-186.56h-186.56V512h186.56v139.84z m217.28 186.56h-170.88v-139.84h186.56v124.16c0 8.64-7.04 16-16 16z m16-186.56h-186.56V512h186.56v139.84z m0-186.56h-186.56v-139.84h-46.72v139.84h-186.56v-139.84h-46.72v139.84H185.28v-124.16c0-8.64 7.04-16 16-16h621.44c8.64 0 16 7.04 16 16v124.16z"></path>
</svg>