<svg viewBox="0 0 1024 1024" version="1.1" xmlns="http://www.w3.org/2000/svg" xmlns:xlink="http://www.w3.org/1999/xlink" width="32" height="32">
    <path d="M511.68 83.84c-235.52 0-426.88 189.44-427.2 427.84-0.32 235.84 189.12 428.16 426.56 428.48 235.84 0.32 426.88-189.12 428.48-427.84-0.96-237.12-190.4-428.48-427.84-428.48zM238.72 462.4c8.64-7.68 16.64-16.32 25.92-23.36 12.16-9.28 26.88-12.8 41.92-12.8h120.96c20.8 0 39.36-8 56-20.16 17.92-13.12 35.84-26.24 53.76-39.04 18.88-13.44 38.08-26.88 56.96-40a30.4 30.4 0 0 1 5.44-3.2c0.32 0.32 0.64 0.96 0.96 1.28-2.24 2.56-4.48 5.12-7.04 7.36-66.56 66.88-133.44 133.76-200 200.32a21.12 21.12 0 0 1-6.4 4.48c-27.52 8.96-49.92 25.28-70.08 45.44l-2.56 2.56c-0.32 0.32-0.96 0.64-2.24 1.28l-12.48-18.24c-20.8-31.04-41.6-62.4-62.4-93.44-3.52-5.12-3.2-8.32 1.28-12.16z m423.04-40.96c-18.88 27.2-38.08 54.4-57.28 81.6-4.48 6.08-9.6 11.84-13.76 17.92-12.48 18.24-17.6 38.72-17.6 60.8v112.64c0 21.12-7.36 39.04-22.08 53.76-5.12 5.12-10.56 10.24-15.36 15.68-2.56 2.88-4.8 2.88-8 0.64-27.84-18.56-55.36-37.12-83.2-55.68-10.24-7.04-20.48-13.76-30.72-20.48 9.6-11.2 19.52-21.44 27.52-33.28 7.68-11.84 13.44-24.96 19.84-37.76 2.24-4.48 4.48-9.28 8-12.8 67.52-67.84 135.36-135.68 202.88-203.52 0.96-0.96 2.24-1.92 3.2-2.88 0.32 0.32 0.96 0.64 1.28 0.96-5.12 7.36-10.24 14.72-15.04 21.76z m88-131.52c-11.2 19.52-24 38.4-35.84 57.28-19.84 32-48.64 55.68-74.88 81.92-58.24 58.88-116.8 117.12-175.04 176-1.92 1.92-3.2 4.16-4.16 6.72-8.64 29.12-27.2 52.16-48.32 72.96-5.76 5.76-11.84 11.2-17.28 17.28-3.2 3.52-5.44 3.2-8.32 0s-5.76-6.08-8.96-9.6c-3.84 3.52-6.72 6.72-9.6 9.6-5.12 5.12-9.28 6.72-15.68 2.56-6.72-4.48-12.16-10.56-18.24-16-0.96-0.96-1.6-2.24-2.88-3.84-3.52 2.88-6.72 5.76-10.24 8.64-4.8 3.52-9.6 7.36-15.04 10.56-2.56 1.6-6.4 1.28-9.6 1.6 0.32-3.2-0.32-7.04 1.28-9.6 4.48-7.04 9.6-13.76 14.4-20.48 1.28-1.6 2.56-3.2 4.48-5.12-2.24-1.6-4.16-2.88-5.76-4.8-5.12-6.08-10.24-11.84-14.72-18.56-3.2-4.48-2.24-9.28 2.24-13.12 3.52-2.88 7.36-5.76 11.2-8.64v-3.52c-3.52-2.88-7.68-5.44-10.88-8.96-0.96-0.96-0.96-4.8 0-5.76 20.8-20.8 40-43.2 66.56-56.64 7.04-3.52 14.72-6.08 21.76-9.6 3.84-1.92 8-3.52 10.56-6.4 74.88-74.88 149.76-150.08 224.96-224.64 11.52-11.2 25.6-19.84 38.72-29.44 18.56-13.44 37.12-26.88 58.88-34.56 8.64-2.88 17.6-5.12 26.56-5.12 8.96 0 13.12 5.44 13.44 14.72 0.64 12.48-3.84 24-9.6 34.24z"></path>
    <path d="M658.24 294.4c-1.6 0-3.84 1.6-4.8 2.88-3.2 6.08-5.76 12.48-8.96 19.52 11.84-1.28 21.76 0.32 29.76 8.32 8.32 8 9.92 18.24 9.28 29.12 1.6 0 2.24 0 2.56-0.32 3.84-1.6 7.36-3.2 11.2-5.12 8-3.84 9.92-7.04 8.96-16-2.56-24.96-23.04-41.6-48-38.4z"></path>
</svg>