<svg viewBox="0 0 1024 1024" version="1.1" xmlns="http://www.w3.org/2000/svg" xmlns:xlink="http://www.w3.org/1999/xlink" width="32" height="32">
    <path d="M892.48 390.72V231.04c0-34.24-27.84-62.4-62.4-62.4h-216L539.2 108.8c-21.76-15.04-50.56-14.72-72 0.64l-71.04 58.88H193.92c-34.24 0-62.4 27.84-62.4 62.4v158.08l-48 40v434.56c0 34.24 27.84 62.4 62.4 62.4h732.16c34.24 0 62.4-27.84 62.4-62.4V429.12l-48-38.4z m-41.6 88.64L512 618.88 173.12 479.36V231.04c0-11.52 9.28-20.8 20.8-20.8h636.16c11.52 0 20.8 9.28 20.8 20.8v248.32z"></path>
    <path d="M523.2 258.88c-40 0-73.28 12.16-99.84 36.48-25.6 23.36-38.72 51.52-38.72 84.48s11.2 57.28 33.28 77.44c24 21.44 56.64 32.32 97.92 32.32 35.84 0 68.16-9.6 97.28-28.48l-10.24-14.08c-25.28 16.96-53.76 25.28-85.76 25.28-30.4 0-54.4-8.32-72.32-24.64-18.56-16.96-27.84-40-27.84-69.12s9.6-53.12 28.48-72.64c20.48-20.8 46.4-31.04 77.76-31.04 28.48 0 51.84 7.04 70.4 21.76 19.52 15.36 29.44 35.52 29.44 60.16 0 17.92-5.44 33.92-16.64 48.32-11.84 15.36-26.24 23.36-43.2 23.36-4.8 0-7.36-2.24-7.36-6.72 0-6.4 5.44-28.8 16-67.52 6.4-21.76 11.52-38.72 16-49.92h-29.12l-1.28 3.2c-5.12-4.8-13.76-7.36-25.28-7.36-20.8 0-39.68 9.28-56.32 27.52-19.84 21.76-29.44 46.4-29.44 74.24s13.76 42.88 40.96 42.88c17.92 0 30.72-4.48 38.72-13.44 1.6-7.68 2.56-10.24 2.56-7.68 0 15.04 9.6 22.4 29.12 22.4 25.92 0 47.68-9.6 64.96-28.8 14.4-16.64 21.76-36.48 21.76-59.2 0-28.16-10.24-51.2-30.4-69.12-22.72-20.16-52.8-30.4-90.24-30.4z m8.96 127.36c-11.84 28.48-25.6 42.56-41.6 42.56-7.36 0-10.88-6.72-10.88-20.16 0-20.16 4.8-40 14.4-59.2 11.52-23.04 24.32-34.24 39.04-34.24 8.96 0 13.76 6.08 13.76 18.24s-4.8 30.4-14.4 53.12z"></path>
</svg>