<svg viewBox="0 0 1024 1024" version="1.1" xmlns="http://www.w3.org/2000/svg" xmlns:xlink="http://www.w3.org/1999/xlink" width="32" height="32">
    <path d="M834.24 186.56c-195.52-131.84-458.24 55.36-568.96 138.24-6.08 4.48 0 13.44 6.4 10.56 115.2-53.76 391.04-166.72 515.52-73.92 102.72 76.8 82.56 244.8 76.16 304.32-0.64 4.48 5.44 6.4 7.68 2.56 32.96-58.88 131.2-248-36.8-381.76zM752.64 688.64c-115.2 53.76-391.04 166.72-515.52 73.92-102.72-76.8-82.56-244.8-76.16-304.32 0.64-4.48-5.44-6.4-7.68-2.56-32.96 58.88-131.2 248 36.8 381.76 195.52 131.84 458.24-55.36 568.96-138.24 6.08-4.48 0-13.44-6.4-10.56z"></path>
    <path d="M264.32 436.8v222.72c0 14.72-2.56 23.36-7.68 26.56-4.48 2.24-13.44 4.16-26.56 5.44v21.12h93.12v-21.44c-13.12-0.96-22.08-2.88-26.88-6.08-4.48-3.2-6.72-11.84-6.72-25.92v-225.28l80.32 278.72h17.92l80.32-278.08v224.32c0 15.04-2.56 24-7.68 26.88-3.84 2.24-12.8 4.16-26.88 5.44v21.12h101.12v-21.44c-14.72-1.28-24-3.2-28.16-6.08-4.48-3.2-6.72-12.16-6.72-26.24v-222.72c0-14.72 2.56-23.36 8-26.88 4.8-2.88 13.76-5.12 26.88-6.08v-21.44h-76.16l-75.2 261.76-75.84-261.76H228.8v21.12c15.68 1.6 25.28 3.84 28.8 6.08 4.48 3.2 6.72 12.48 6.72 27.2zM786.56 663.68c-12.48 0-23.36-11.52-32.32-34.88 33.92-33.92 50.88-83.2 50.88-148.48 0-53.12-11.84-96.96-35.84-130.88-21.12-30.08-47.36-45.12-78.4-45.12s-57.6 15.04-78.72 45.12c-23.36 34.24-35.2 77.76-35.2 131.2s11.84 98.88 35.2 132.8c20.8 29.76 47.04 44.48 78.4 44.48 15.36 0 28.8-3.84 40.32-11.52 12.48 31.68 28.48 47.68 48.32 47.68 15.36 0 28.8-10.88 40.96-32.64l-9.92-17.28c-8.96 12.8-16.96 19.2-23.68 19.2z m-72.96-34.56c-6.72 3.2-13.12 4.8-19.84 4.8-19.52 0-29.12-11.52-29.12-34.24 0-9.28 2.24-16.96 6.4-23.04 4.16-5.76 8.96-8.64 14.4-8.64 13.44 0 25.92 19.52 38.4 58.24 0-0.96-3.52 0-9.92 3.2z m31.68-27.52c-7.04-18.56-13.12-32.32-18.56-40.96-10.56-16.64-23.36-24.96-38.08-24.96-13.44 0-24 6.08-32.64 18.24-7.68 10.56-11.52 23.68-11.52 39.36 0 9.92 1.92 18.56 4.8 26.24-25.28-26.56-38.08-72.64-38.08-138.24 0-44.16 7.04-80 21.12-107.2 14.72-29.76 34.56-44.8 59.52-44.8 19.52 0 36.16 9.92 50.24 29.76 19.84 27.84 29.44 68.8 29.44 122.24s-8.64 95.36-25.92 120.32z"></path>
</svg>