<svg viewBox="0 0 1024 1024" version="1.1" xmlns="http://www.w3.org/2000/svg" xmlns:xlink="http://www.w3.org/1999/xlink" width="32" height="32">
    <path d="M915.84 446.4a31.712 31.712 0 0 0-33.92-28.8l-37.44 3.2c-17.28 1.6-36.48-10.56-43.2-26.56l-25.92-50.56c-9.28-14.4-8-37.12 3.2-50.24l24.32-28.8c11.2-13.12 9.6-33.28-3.84-44.16l-48-40.32a31.136 31.136 0 0 0-44.16 3.84l-24.32 28.8c-11.2 13.12-33.28 18.56-48.96 11.52l-54.08-16.96c-16.96-3.84-32-20.8-33.28-38.08l-3.2-37.44a31.712 31.712 0 0 0-33.92-28.8l-62.4 5.12c-17.28 1.6-30.08 16.64-28.8 33.92l3.2 37.44c1.6 17.28-10.56 36.48-26.56 43.2l-50.56 25.92c-14.4 9.6-37.12 8-50.24-3.2l-28.8-24.32a31.136 31.136 0 0 0-44.16 3.84l-40.32 48c-11.2 13.12-9.6 32.96 3.84 44.16l28.8 24.32c13.12 11.2 18.56 33.28 11.52 48.96l-16.96 54.4c-3.84 16.96-20.8 31.68-38.08 33.28l-37.44 3.2c-17.28 1.6-30.08 16.64-28.8 33.92l5.12 62.4c1.6 17.28 16.64 30.08 33.92 28.8l37.44-3.2c17.28-1.28 36.48 10.56 42.88 26.56l25.92 50.56c9.28 14.4 8 37.12-3.2 50.24l-24.32 28.8c-11.2 13.12-9.6 32.96 3.84 44.16l48 40.32c13.12 11.2 32.96 9.6 44.16-3.84l24.32-28.8c11.2-13.12 33.28-18.24 48.96-11.52l54.4 17.28c16.96 3.84 31.68 20.8 33.28 38.08l3.2 37.44c1.6 17.28 16.64 30.08 33.92 28.8l62.4-5.12c17.28-1.6 30.08-16.64 28.8-33.92l-3.2-37.44c-1.6-17.28 10.56-36.48 26.56-42.88l50.56-25.92c14.4-9.6 37.12-8 50.24 3.2l28.8 24.32c13.12 11.2 33.28 9.6 44.16-3.84l40.64-48c11.2-13.12 9.6-33.28-3.84-44.16l-28.8-24.32c-13.12-11.2-18.24-33.28-11.52-48.96l17.28-54.08c3.84-16.96 20.8-31.68 38.08-33.28l37.44-3.2c17.28-1.6 30.08-16.64 28.48-33.92l-5.12-62.72z m-386.88 268.16c-112 9.28-210.24-73.6-219.84-185.6-9.28-112 73.6-210.24 185.6-219.84s210.24 73.6 219.84 185.6c9.28 112-73.6 210.24-185.6 219.84z"></path>
    <path d="M401.92 481.6c4.48 0 7.04-1.92 7.36-6.08v-19.52l21.76 24s3.2 1.6 5.76 1.6c4.16 0 6.72-2.24 7.36-6.08a4.48 4.48 0 0 0-1.92-3.84l-16.32-16.32c11.52-2.24 17.6-7.68 17.92-16.64 0-13.44-8-20.16-24.32-20.16h-17.28c-4.8 0-7.36 2.24-7.36 7.04v49.92c0 4.16 2.56 6.08 7.36 6.08z m7.36-50.88h9.92c5.76 0 8.96 2.88 9.28 8 0 4.8-3.2 7.36-9.28 7.68h-9.92v-15.68zM491.84 475.52c0-3.84-2.56-5.76-6.72-5.76h-17.92v-13.44h16c4.48 0 6.72-2.24 7.36-6.4-0.64-3.84-2.88-6.08-7.36-6.08h-16v-12.8h17.28c4.16 0 6.72-2.24 6.72-6.08s-2.56-5.76-6.72-5.76h-24.32c-4.8 0-7.36 2.56-7.36 7.68v48.96c0 4.16 2.56 6.4 7.36 6.72h25.28c4.16 0 6.72-2.24 6.72-6.08zM520.64 470.08c-2.24 0-5.44-0.64-9.6-1.92a25.472 25.472 0 0 0-6.72-1.28c-4.16 0-6.08 2.24-6.4 6.4 0 6.08 8 8.96 23.68 9.28 15.68-0.64 24-7.36 25.28-19.84 0-9.28-7.36-15.68-21.76-19.84-7.36-1.92-10.88-4.16-10.88-6.72 0-3.52 2.88-5.44 8-5.44 1.92 0 4.48 0.32 7.68 1.28 2.56 0.64 4.16 0.96 5.44 0.96 4.16 0 6.08-2.56 6.4-6.72-0.64-5.12-7.04-8-19.2-8.64-15.04 0.96-23.04 7.68-24 20.16 0 8 6.72 13.44 20.16 16.96 8 2.24 12.16 4.8 12.16 7.68 0 4.8-3.52 7.36-9.92 7.68zM579.84 430.72h10.56c4.16 0 6.08-2.24 6.4-6.08 0-3.84-2.56-5.76-6.4-5.76h-36.16c-3.52 0-5.44 2.24-5.76 5.76 0 4.16 2.24 6.08 5.76 6.08h10.56v44.8c0 4.16 2.56 6.08 7.36 6.08 4.8 0 7.36-1.92 7.68-6.08v-44.8zM445.76 503.36c-3.84-8.32-9.92-12.48-18.24-12.48-8.32 0.32-14.08 4.48-17.6 12.48l-33.6 81.92v1.28s-0.64 2.88-0.64 4.16c0.32 6.4 4.16 9.28 11.52 9.28 6.08 0 10.24-2.24 12.16-7.04l5.12-14.08h46.08l4.48 14.08c2.24 4.8 6.4 7.04 12.16 7.04 7.36 0 11.2-2.88 11.52-8.96 0-1.6-0.32-3.52-1.28-5.76l-32.32-81.92z m-33.6 54.72l15.68-43.52 15.36 43.52h-31.04zM529.28 492.8h-29.76c-7.68 0.32-11.84 4.16-12.16 11.84v84.8c0.32 7.04 4.48 10.56 12.16 10.56s11.84-3.52 12.16-10.56v-24.64h18.24c25.92-1.6 39.68-13.44 41.28-35.84-1.6-22.4-15.68-34.24-41.92-35.84z m-0.64 51.84h-16.96v-31.68h16.96c10.88 0.32 16.32 5.76 16.96 16-0.96 9.92-6.4 15.04-16.96 16zM591.36 491.84c-7.68 0.32-11.84 4.16-12.16 11.84v85.76c0.32 7.04 4.48 10.56 12.16 10.56s11.84-3.52 12.16-10.56v-85.76c-0.32-7.36-4.48-11.52-12.16-11.84z"></path>
</svg>