<svg viewBox="0 0 1024 1024" version="1.1" xmlns="http://www.w3.org/2000/svg" width="32" height="32" xmlns:xlink="http://www.w3.org/1999/xlink">
    <path d="M513.28 824H283.52c-89.6-0.32-157.12-40.32-200.64-118.4-10.24-18.24-15.36-39.36-20.8-59.52-3.84-14.08-6.08-29.44-5.76-44.16 1.6-68.48 27.84-126.08 80.32-170.88 29.44-24.96 63.36-40 100.8-48 7.04-1.6 13.44-8 18.56-13.44 24.64-26.24 47.36-54.72 73.6-79.36 23.68-22.08 53.12-35.84 83.2-48.32 50.56-20.8 103.04-22.72 155.2-15.68 55.68 7.36 106.88 30.4 147.84 69.44 55.04 46.72 83.52 99.2 97.28 132.48 3.52 6.4 8.96 12.8 15.36 15.68 53.12 25.28 88.64 65.6 108.16 121.28 12.48 35.84 14.08 72.32 4.48 107.52-15.04 56.32-47.68 101.12-100.8 128.64-31.68 16.32-64.96 23.68-100.8 23.04-75.52-0.96-150.72 0-226.24 0z m-0.96-37.12h234.24c21.44 0 41.92-3.52 61.76-11.52 76.16-30.72 119.04-115.84 95.04-194.56-15.04-49.6-46.4-86.08-95.36-105.92-11.84-4.8-21.76-12.16-25.92-24.64-11.84-39.36-35.2-71.04-62.72-101.12-40.64-44.48-89.6-73.92-148.16-85.12-65.92-12.8-129.28-2.24-187.52 32.64-41.92 24.96-73.6 60.48-101.12 99.84-10.88 15.36-24 22.4-41.92 24.64-11.2 1.6-23.04 4.16-33.28 8.64-64.64 29.12-102.72 79.68-113.6 149.12-6.72 43.2 3.84 84.8 27.52 121.28 37.76 57.28 90.88 87.36 160.64 86.72 76.48-0.64 153.28 0 229.76 0z"></path>
    <path d="M640.32 403.84c5.12 15.04 10.56 27.52 13.44 40.64 9.6 40.32 17.92 81.28 13.76 123.2-5.12 49.6-23.04 92.48-71.68 113.92-16.64 7.36-35.2 12.8-53.12 13.76-39.36 1.92-79.04 0.64-119.36-1.28 9.28-3.52 18.24-7.68 27.84-10.24 76.8-21.12 129.28-70.72 163.2-141.44 4.16-8.64 12.8-19.2 4.48-32.96-3.52 4.8-6.72 8.32-8.96 12.48-25.92 45.76-63.36 80.32-109.44 104.32-23.04 11.84-49.28 18.56-74.24 26.88-13.76 4.48-28.48 6.08-42.24 10.56-35.2 11.52-52.8-6.08-58.88-37.12-10.56-55.04 13.76-96.64 61.76-118.72 20.16-9.28 44.48-10.24 67.2-14.08 24.96-4.16 50.88-4.16 74.88-10.56 41.92-11.2 76.16-35.2 103.04-69.76 1.92-2.56 4.48-5.12 8.32-9.6zM338.24 715.2c-7.68-0.64-14.72-4.48-12.8-12.48 1.28-5.12 8-11.2 13.12-12.48 8.32-1.92 11.52 5.12 11.52 13.12 0 8.32-3.84 12.16-11.84 11.52z"></path>
</svg>